<svg xmlns="http://www.w3.org/2000/svg" width="32" height="32" fill="none" viewBox="0 0 32 32"><mask id="a" width="32" height="32" x="0" y="0" maskUnits="userSpaceOnUse" style="mask-type:alpha"><path fill="#000" fill-rule="evenodd" d="M16 32C28.8 32 32 28.8 32 16 32 3.2 28.8 0 16 0 3.2 0 0 3.2 0 16c0 12.8 3.2 16 16 16Z" clip-rule="evenodd"/></mask><g mask="url(#a)"><rect width="32" height="32" fill="url(#b)"/><path stroke="url(#c)" stroke-width="1.75" d="M31.125 16c0 6.406-.822 10.06-2.944 12.181S22.406 31.125 16 31.125s-10.06-.822-12.181-2.944S.875 22.406.875 16s.822-10.06 2.944-12.181S9.594.875 16 .875s10.06.822 12.181 2.944S31.125 9.594 31.125 16Z"/><path fill="#fff" fill-rule="evenodd" d="M16 8.018c-.041.014-.104.038-.194.078-.239.103-.523.251-.888.46-.742.424-1.671 1.023-2.716 1.761-1.207.851-1.754 1.28-2.435 1.814-.505.396-1.084.85-2.06 1.576a1 1 0 0 1-1.414-1.414c2.208-1.793 2.606-2.092 4.755-3.61 1.08-.762 2.089-1.413 2.878-1.864.401-.229.78-.425 1.077-.555.262-.115.639-.264.997-.264s.735.149.997.264c.297.13.676.326 1.077.555.789.451 1.798 1.102 2.878 1.864 2.149 1.518 2.548 1.817 4.755 3.61a1 1 0 0 1-1.414 1.414c-.976-.726-1.555-1.18-2.06-1.576-.681-.534-1.228-.963-2.435-1.814-1.045-.738-1.974-1.337-2.716-1.761-.365-.209-.649-.357-.888-.46-.09-.04-.153-.064-.194-.078ZM7 24a1 1 0 0 1 1-1h16a1 1 0 1 1 0 2H8a1 1 0 0 1-1-1Zm8-3v-7a1 1 0 1 1 2 0v7a1 1 0 1 1-2 0Zm5 0v-7a1 1 0 1 1 2 0v7a1 1 0 1 1-2 0Zm-10 0v-7a1 1 0 1 1 2 0v7a1 1 0 1 1-2 0Z" clip-rule="evenodd"/></g><defs><radialGradient id="b" cx="0" cy="0" r="1" gradientTransform="translate(16) rotate(90) scale(14)" gradientUnits="userSpaceOnUse"><stop stop-color="#ff7184"/><stop offset="1" stop-color="#ec3750"/></radialGradient><radialGradient id="c" cx="0" cy="0" r="1" gradientTransform="translate(16) rotate(90) scale(16)" gradientUnits="userSpaceOnUse"><stop stop-color="#ffe4e8"/><stop offset="1" stop-color="#fec2ca"/></radialGradient></defs></svg>
