<svg xmlns="http://www.w3.org/2000/svg" viewBox="0 0 24 24"><defs><radialGradient id="a" cx="30%" cy="107%" r="120%"><stop offset="0" stop-color="#ffd600"/><stop offset=".48" stop-color="#ff0169"/><stop offset="1" stop-color="#d300c5"/></radialGradient></defs><rect width="24" height="24" rx="6" fill="url(#a)"/><path fill="#fff" d="M12 5.84c2.01 0 2.25.01 3.05.04.74.03 1.14.16 1.41.26.36.14.61.31.88.58.27.27.44.52.58.88.1.27.23.67.26 1.41.03.8.04 1.04.04 3.05s-.01 2.25-.04 3.05c-.03.74-.16 1.14-.26 1.41-.14.36-.31.61-.58.88-.27.27-.52.44-.88.58-.27.1-.67.23-1.41.26-.8.03-1.04.04-3.05.04s-2.25-.01-3.05-.04c-.74-.03-1.14-.16-1.41-.26a2.38 2.38 0 0 1-.88-.58 2.38 2.38 0 0 1-.58-.88c-.1-.27-.23-.67-.26-1.41-.03-.8-.04-1.04-.04-3.05s.01-2.25.04-3.05c.03-.74.16-1.14.26-1.41.14-.36.31-.61.58-.88.27-.27.52-.44.88-.58.27-.1.67-.23 1.41-.26.8-.03 1.04-.04 3.05-.04M12 4.5c-2.04 0-2.3.01-3.11.04-.8.04-1.35.17-1.83.36-.5.19-.92.45-1.34.87-.42.42-.68.84-.87 1.34-.19.48-.32 1.03-.36 1.83-.03.81-.04 1.07-.04 3.11s.01 2.3.04 3.11c.04.8.17 1.35.36 1.83.19.5.45.92.87 1.34.42.42.84.68 1.34.87.48.19 1.03.32 1.83.36.81.03 1.07.04 3.11.04s2.3-.01 3.11-.04c.8-.04 1.35-.17 1.83-.36.5-.19.92-.45 1.34-.87.42-.42.68-.84.87-1.34.19-.48.32-1.03.36-1.83.03-.81.04-1.07.04-3.11s-.01-2.3-.04-3.11c-.04-.8-.17-1.35-.36-1.83a3.72 3.72 0 0 0-.87-1.34 3.72 3.72 0 0 0-1.34-.87c-.48-.19-1.03-.32-1.83-.36-.81-.03-1.07-.04-3.11-.04Z"/><path fill="#fff" d="M12 8.17A3.83 3.83 0 1 0 12 15.83 3.83 3.83 0 0 0 12 8.17Zm0 6.32A2.49 2.49 0 1 1 12 9.51a2.49 2.49 0 0 1 0 4.98Zm4.87-6.47a.89.89 0 1 1-1.78 0 .89.89 0 0 1 1.78 0Z"/></svg>
